#N canvas 671 37 761 559 10;
#X declare -lib mrpeach;
#X obj 272 7 import mrpeach;
#X obj 271 55 udpreceive 9001;
#X obj 271 90 unpackOSC;
#X obj 302 377 print;
#X obj 497 446 osc~;
#X obj 487 490 dac~;
#X obj 502 359 abs;
#X obj 504 404 *;
#X floatatom 545 372 5 0 0 0 - - -;
#X obj 271 133 routeOSC /iosc3;
#X obj 458 290 unpack f;
#X connect 1 0 2 0;
#X connect 2 0 9 0;
#X connect 4 0 5 0;
#X connect 6 0 7 0;
#X connect 7 0 4 0;
#X connect 7 0 3 0;
#X connect 8 0 7 1;
#X connect 9 0 10 0;
#X connect 10 0 6 0;
