#N canvas 671 37 761 559 10;
#X declare -lib mrpeach;
#X obj 272 7 import mrpeach;
#X obj 271 55 udpreceive 9001;
#X obj 271 90 unpackOSC;
#X obj 494 390 print;
#X obj 588 347 osc~;
#X obj 578 391 dac~;
#X obj 593 260 abs;
#X obj 595 305 *;
#X floatatom 636 273 5 0 0 0 - - -;
#X obj 549 191 unpack f;
#X obj 476 134 routeOSC /rotation;
#X obj 47 136 routeOSC /acceleration;
#X obj 48 193 unpack f f f;
#X obj 171 196 print;
#X connect 1 0 2 0;
#X connect 2 0 10 0;
#X connect 2 0 11 0;
#X connect 4 0 5 0;
#X connect 6 0 7 0;
#X connect 7 0 4 0;
#X connect 7 0 3 0;
#X connect 8 0 7 1;
#X connect 9 0 6 0;
#X connect 10 0 9 0;
#X connect 11 0 12 0;
#X connect 11 0 13 0;
