#N canvas 194 117 761 559 10;
#X declare -lib mrpeach;
#X obj 272 7 import mrpeach;
#X obj 271 55 udpreceive 9001;
#X obj 271 90 unpackOSC;
#X obj 458 290 unpack f f f;
#X obj 447 363 print;
#X obj 497 446 osc~;
#X obj 487 490 dac~;
#X obj 601 488 dac~;
#X obj 502 359 abs;
#X obj 504 404 *;
#X obj 588 436 osc~;
#X obj 602 390 *;
#X obj 650 344 299;
#X obj 506 322 mtof;
#X obj 598 338 abs;
#X obj 560 315 mtof;
#X obj 396 185 print;
#X floatatom 545 372 5 0 0 0 - - -;
#X obj 271 133 routeOSC /iosc3;
#X connect 1 0 2 0;
#X connect 2 0 18 0;
#X connect 3 0 4 0;
#X connect 3 1 13 0;
#X connect 3 2 15 0;
#X connect 5 0 6 0;
#X connect 8 0 9 0;
#X connect 9 0 5 0;
#X connect 10 0 7 0;
#X connect 11 0 10 0;
#X connect 12 0 11 1;
#X connect 13 0 8 0;
#X connect 14 0 11 0;
#X connect 15 0 14 0;
#X connect 17 0 9 1;
#X connect 18 0 16 0;
